<svg xmlns="http://www.w3.org/2000/svg" width="232.25" height="54.66" viewBox="0 0 232.25 54.66"><title>Red Hat logo - Brandlogos.net</title><path d="M316.07,388.17c4.75,0,11.62-1,11.62-6.63a5.31,5.31,0,0,0-.12-1.3L324.75,368c-.65-2.7-1.23-3.93-6-6.3-3.68-1.88-11.7-5-14.08-5-2.21,0-2.85,2.85-5.49,2.85s-4.42-2.13-6.79-2.13-3.76,1.55-4.91,4.74c0,0-3.19,9-3.6,10.31a2.44,2.44,0,0,0-.08.74c0,3.5,13.78,15,32.24,15m12.35-4.32a18.89,18.89,0,0,1,.66,3.85c0,5.31-6,8.26-13.83,8.26-17.75,0-33.3-10.39-33.3-17.26a7,7,0,0,1,.57-2.78c-6.38.32-14.65,1.46-14.65,8.75,0,11.95,28.31,26.68,50.73,26.68,17.19,0,21.52-7.77,21.52-13.91,0-4.83-4.18-10.31-11.7-13.58" transform="translate(-267.88 -356.67)" style="fill:#e00"/><path d="M328.42,383.84a18.89,18.89,0,0,1,.66,3.85c0,5.31-6,8.26-13.83,8.26-17.75,0-33.3-10.39-33.3-17.26a7,7,0,0,1,.57-2.78l1.39-3.44a2.44,2.44,0,0,0-.08.72c0,3.5,13.78,15,32.24,15,4.75,0,11.62-1,11.62-6.63a5.31,5.31,0,0,0-.12-1.3Z" transform="translate(-267.88 -356.67)"/><path d="M487.75,391.71c0,4.51,2.71,6.71,7.66,6.71a19.78,19.78,0,0,0,4.51-.64v-5.23A9.43,9.43,0,0,1,497,393c-2,0-2.79-.64-2.79-2.55v-8h5.91V377h-5.91v-6.83l-6.45,1.4V377h-4.29v5.39h4.27Zm-20.12.12c0-1.4,1.4-2.08,3.52-2.08a16.37,16.37,0,0,1,3.83.48v2.71a8.17,8.17,0,0,1-4,1c-2.07,0-3.31-.8-3.31-2.11m2,6.67a9.88,9.88,0,0,0,5.83-1.64v1.28h6.38V384.6c0-5.15-3.47-8-9.26-8a23.57,23.57,0,0,0-9.87,2.32L465,383.7A17.24,17.24,0,0,1,471.4,382c2.66,0,4,1,4,3.15v1a18.8,18.8,0,0,0-4.79-.6c-5.43,0-8.7,2.28-8.7,6.35,0,3.71,3,6.54,7.66,6.54m-35.09-.36h6.87v-11h11.5v10.94h6.89V370.19H452.9v10.74H441.4V370.19h-6.87Zm-26.14-10.59a5.35,5.35,0,0,1,5.55-5.35,6.54,6.54,0,0,1,4.46,1.64v7.38a6.21,6.21,0,0,1-4.46,1.69,5.37,5.37,0,0,1-5.55-5.35m10.1,10.58h6.39V368.79l-6.45,1.4v7.94a10.88,10.88,0,1,0-5.78,20.28h.19a9.54,9.54,0,0,0,5.67-1.83Zm-29.32-16.24a4.67,4.67,0,0,1,4.43,3.35h-8.81a4.41,4.41,0,0,1,4.38-3.35m-10.88,5.69c0,6.15,5,10.94,11.49,10.94a12.68,12.68,0,0,0,8.83-3.2l-4.27-3.8a5.71,5.71,0,0,1-4.23,1.6,5.46,5.46,0,0,1-5.19-3.35h15.05v-1.61c0-6.71-4.51-11.54-10.66-11.54a10.84,10.84,0,0,0-11,10.68q0,.13,0,.26m-11.14-11.54c2.28,0,3.55,1.43,3.55,3.15s-1.28,3.15-3.55,3.15h-6.79v-6.31Zm-13.67,22.08h6.87V388h5.23l5.27,10.18h7.69L372.38,387a8.45,8.45,0,0,0,5.27-7.87c0-5-4-8.9-9.87-8.9h-14.3Z" transform="translate(-267.88 -356.67)"/></svg>